<svg xmlns="http://www.w3.org/2000/svg" viewBox="0 0 23 23"><path d="M1 1h7v7h-7zM11 1h3v2h-2v-1h-1zM15 1h7v7h-7zM2 2v5h5v-5zM16 2v5h5v-5zM3 3h3v3h-3zM9 3h3v1h-1v1h-1v3h1v-1h1v2h-1v1h-1v-1h-1zM17 3h3v3h-3zM13 4h1v2h-1zM11 5h1v1h-1zM12 6h1v1h-1zM13 7h1v1h-1zM1 9h1v1h-1zM3 9h5v1h-3v1h-1v3h-2v-1h-1v-2h2zM12 9h1v1h2v-1h5v2h1v2h-4v-1h1v-1h1v-1h-1v1h-2v1h-1v1h-1v1h1v-1h2v1h1v1h-3v1h-1v-1h-1v-2h-2v-1h2v-1h-1zM8 10h2v1h-2zM21 10h1v1h-1zM5 11h1v1h-1zM7 11h1v1h-1zM10 11h1v1h-1zM6 12h1v1h-1zM8 12h2v1h-1v1h-2v-1h1zM5 13h1v1h-1zM21 13h1v2h-1v2h-3v1h1v2h1v1h-2v1h-1v-2h1v-1h-1v1h-1v1h-2v1h-1v-1h-1v1h-1v-3h-1v1h-1v-4h1v1h1v1h1v-1h1v1h4v-1h-1v-1h3v-1h1v-1h1zM9 14h1v1h-1zM11 14h1v1h1v1h-3v-1h1zM1 15h7v7h-7zM2 16v5h5v-5zM3 17h3v3h-3zM21 17h1v1h-1zM12 19v1h1v-1zM14 19v1h1v-1zM9 21h1v1h-1zM20 21h1v1h-1z"/></svg>